<svg width="20" height="20" viewBox="0 0 20 20" fill="none" xmlns="http://www.w3.org/2000/svg">
<g clip-path="url(#clip0_456_259)">
<path fill-rule="evenodd" clip-rule="evenodd" d="M10 0C15.5191 0 20 4.48093 20 10C20 15.5191 15.5191 20 10 20C4.48093 20 0 15.5191 0 10C0 4.48093 4.48093 0 10 0ZM10 3.75C8.30259 3.75 8.08982 3.75722 7.42315 3.78759C6.75796 3.81796 6.30352 3.92352 5.90593 4.07815C5.495 4.23796 5.14648 4.45167 4.79889 4.79907C4.4513 5.14648 4.23778 5.495 4.07796 5.90611C3.92352 6.3037 3.81778 6.75796 3.78741 7.42315C3.75704 8.08982 3.74981 8.30259 3.74981 10C3.74981 11.6974 3.75704 11.9102 3.78741 12.5769C3.81778 13.242 3.92333 13.6965 4.07796 14.0939C4.23778 14.5048 4.45148 14.8533 4.79889 15.2009C5.1463 15.5483 5.49482 15.762 5.90593 15.9219C6.30352 16.0763 6.75778 16.182 7.42315 16.2124C8.08982 16.2428 8.30259 16.25 10 16.25C11.6974 16.25 11.9102 16.2428 12.5769 16.2124C13.242 16.182 13.6965 16.0765 14.0939 15.9219C14.5048 15.762 14.8533 15.5483 15.2009 15.2009C15.5483 14.8535 15.762 14.5048 15.9219 14.0939C16.0763 13.6963 16.182 13.242 16.2124 12.5769C16.2428 11.9102 16.25 11.6974 16.25 10C16.25 8.30259 16.2428 8.08982 16.2124 7.42315C16.182 6.75796 16.0765 6.30352 15.9219 5.90611C15.762 5.49519 15.5483 5.14667 15.2009 4.79907C14.8535 4.45167 14.5048 4.23796 14.0939 4.07815C13.6963 3.9237 13.242 3.81796 12.5769 3.78759C11.9102 3.75722 11.6974 3.75 10 3.75ZM10 4.87611C11.6689 4.87611 11.8665 4.88241 12.5256 4.91259C13.135 4.94037 13.4657 5.04222 13.6861 5.12778C13.9778 5.24111 14.1861 5.37667 14.4048 5.59537C14.6235 5.81407 14.7591 6.02222 14.8724 6.31407C14.958 6.53426 15.0598 6.86519 15.0876 7.47463C15.1176 8.1337 15.1241 8.3313 15.1241 10.0002C15.1241 11.6691 15.1178 11.8667 15.0876 12.5257C15.0598 13.1352 14.958 13.4659 14.8724 13.6863C14.7591 13.978 14.6237 14.1863 14.4048 14.405C14.1861 14.6237 13.978 14.7593 13.6861 14.8726C13.4659 14.9581 13.135 15.06 12.5256 15.0878C11.8667 15.1178 11.6689 15.1243 10 15.1243C8.33111 15.1243 8.13352 15.118 7.47444 15.0878C6.865 15.06 6.53426 14.9581 6.31389 14.8726C6.02222 14.7593 5.81389 14.6239 5.59519 14.405C5.37648 14.1863 5.24111 13.9781 5.12759 13.6863C5.04204 13.4661 4.94019 13.1352 4.91241 12.5257C4.88241 11.8667 4.87593 11.6691 4.87593 10.0002C4.87593 8.3313 4.88222 8.1337 4.91241 7.47463C4.94019 6.86519 5.04204 6.53444 5.12759 6.31407C5.24093 6.02241 5.3763 5.81407 5.59519 5.59537C5.81389 5.37667 6.02204 5.24111 6.31389 5.12778C6.53407 5.04222 6.865 4.94037 7.47444 4.91259C8.13352 4.88259 8.33111 4.87611 10 4.87611ZM10 6.79056C8.22741 6.79056 6.79056 8.22741 6.79056 10C6.79056 11.7726 8.22741 13.2094 10 13.2094C11.7726 13.2094 13.2094 11.7726 13.2094 10C13.2094 8.22741 11.7726 6.79056 10 6.79056ZM10 12.0833C8.84944 12.0833 7.91667 11.1506 7.91667 10C7.91667 8.84944 8.84944 7.91667 10 7.91667C11.1506 7.91667 12.0833 8.84944 12.0833 10C12.0833 11.1506 11.1506 12.0833 10 12.0833ZM14.0863 6.6637C14.0863 7.07796 13.7506 7.4137 13.3363 7.4137C12.922 7.4137 12.5863 7.07796 12.5863 6.6637C12.5863 6.24944 12.922 5.9137 13.3363 5.9137C13.7506 5.9137 14.0863 6.24944 14.0863 6.6637Z" fill="#5B274A" fill-opacity="0.5"/>
</g>
<defs>
<clipPath id="clip0_456_259">
<rect width="20" height="20" fill="white"/>
</clipPath>
</defs>
</svg>
