<svg width="17" height="15" viewBox="0 0 17 15" fill="none" xmlns="http://www.w3.org/2000/svg">
<g clip-path="url(#clip0_460_299)">
<path d="M5.31944 6.86936C5.50293 6.86936 5.66276 6.80657 5.79893 6.68097C5.93511 6.55537 6.0032 6.40796 6.0032 6.23874C6.0032 6.06951 5.93511 5.9221 5.79893 5.79651C5.66276 5.67091 5.50293 5.60811 5.31944 5.60811C5.13596 5.60811 4.97613 5.67091 4.83996 5.79651C4.70378 5.9221 4.63569 6.06951 4.63569 6.23874C4.63569 6.40796 4.70378 6.55537 4.83996 6.68097C4.97613 6.80657 5.13596 6.86936 5.31944 6.86936ZM8.875 6.86936C9.05848 6.86936 9.21831 6.80657 9.35449 6.68097C9.49067 6.55537 9.55876 6.40796 9.55876 6.23874C9.55876 6.06951 9.49067 5.9221 9.35449 5.79651C9.21831 5.67091 9.05848 5.60811 8.875 5.60811C8.69152 5.60811 8.53169 5.67091 8.39551 5.79651C8.25933 5.9221 8.19124 6.06951 8.19124 6.23874C8.19124 6.40796 8.25933 6.55537 8.39551 6.68097C8.53169 6.80657 8.69152 6.86936 8.875 6.86936ZM12.4306 6.86936C12.614 6.86936 12.7739 6.80657 12.91 6.68097C13.0462 6.55537 13.1143 6.40796 13.1143 6.23874C13.1143 6.06951 13.0462 5.9221 12.91 5.79651C12.7739 5.67091 12.614 5.60811 12.4306 5.60811C12.2471 5.60811 12.0872 5.67091 11.9511 5.79651C11.8149 5.9221 11.7468 6.06951 11.7468 6.23874C11.7468 6.40796 11.8149 6.55537 11.9511 6.68097C12.0872 6.80657 12.2471 6.86936 12.4306 6.86936ZM0.875 14.5V1.82432C0.875 1.44699 1.01204 1.13194 1.28611 0.879167C1.56019 0.626389 1.90178 0.5 2.31089 0.5H15.4391C15.8482 0.5 16.1898 0.626389 16.4639 0.879167C16.738 1.13194 16.875 1.44699 16.875 1.82432V10.6532C16.875 11.0305 16.738 11.3455 16.4639 11.5983C16.1898 11.8511 15.8482 11.9775 15.4391 11.9775H3.61004L0.875 14.5ZM3.23056 11.1577H15.4391C15.5759 11.1577 15.7012 11.1051 15.8152 11C15.9291 10.8949 15.9861 10.7793 15.9861 10.6532V1.82432C15.9861 1.6982 15.9291 1.58259 15.8152 1.47747C15.7012 1.37237 15.5759 1.31982 15.4391 1.31982H2.31089C2.17415 1.31982 2.04879 1.37237 1.93482 1.47747C1.82087 1.58259 1.76389 1.6982 1.76389 1.82432V12.5056L3.23056 11.1577Z" fill="#5B274A"/>
</g>
<defs>
<clipPath id="clip0_460_299">
<rect width="17" height="15" fill="white"/>
</clipPath>
</defs>
</svg>
