<svg width="16" height="16" viewBox="0 0 16 16" fill="none" xmlns="http://www.w3.org/2000/svg">
<g clip-path="url(#clip0_460_288)">
<path d="M6.22222 11.1795L11.1795 8L6.22222 4.82051V11.1795ZM8.00298 16C6.89671 16 5.85664 15.7901 4.88276 15.3702C3.90887 14.9504 3.06173 14.3806 2.34131 13.6609C1.62091 12.9411 1.05059 12.0948 0.630356 11.1218C0.210118 10.1488 0 9.10923 0 8.00298C0 6.89671 0.209919 5.85664 0.629756 4.88276C1.04961 3.90887 1.6194 3.06173 2.33913 2.34131C3.05887 1.62091 3.90522 1.05059 4.87818 0.630356C5.85116 0.210119 6.89077 0 7.99702 0C9.10329 0 10.1434 0.209918 11.1172 0.629755C12.0911 1.04961 12.9383 1.6194 13.6587 2.33913C14.3791 3.05887 14.9494 3.90522 15.3696 4.87818C15.7899 5.85116 16 6.89077 16 7.99702C16 9.10329 15.7901 10.1434 15.3702 11.1172C14.9504 12.0911 14.3806 12.9383 13.6609 13.6587C12.9411 14.3791 12.0948 14.9494 11.1218 15.3696C10.1488 15.7899 9.10923 16 8.00298 16ZM8 15.1111C9.98519 15.1111 11.6667 14.4222 13.0444 13.0444C14.4222 11.6667 15.1111 9.98519 15.1111 8C15.1111 6.01481 14.4222 4.33333 13.0444 2.95556C11.6667 1.57778 9.98519 0.888889 8 0.888889C6.01481 0.888889 4.33333 1.57778 2.95556 2.95556C1.57778 4.33333 0.888889 6.01481 0.888889 8C0.888889 9.98519 1.57778 11.6667 2.95556 13.0444C4.33333 14.4222 6.01481 15.1111 8 15.1111Z" fill="#5B274A"/>
</g>
<defs>
<clipPath id="clip0_460_288">
<rect width="16" height="16" fill="white"/>
</clipPath>
</defs>
</svg>
