<svg width="20" height="20" viewBox="0 0 20 20" fill="none" xmlns="http://www.w3.org/2000/svg">
<path d="M10 0C4.47656 0 0 4.47656 0 10C0 15.5234 4.47656 20 10 20C15.5234 20 20 15.5234 20 10C20 4.47656 15.5234 0 10 0ZM15.0156 7.65234V9.00781C14.3789 9.00781 13.7578 8.88281 13.1719 8.63672C12.7969 8.47656 12.4453 8.27344 12.125 8.02734L12.1328 12.1953C12.1289 13.1328 11.7578 14.0156 11.0859 14.6797C10.5391 15.2187 9.84766 15.5625 9.09375 15.6758C8.91797 15.7031 8.73828 15.7148 8.55469 15.7148C7.75 15.7148 6.98828 15.4531 6.36328 14.9727C6.24609 14.8828 6.13281 14.7852 6.02734 14.6797C5.30078 13.9609 4.92187 12.9844 4.98828 11.957C5.03516 11.1758 5.34766 10.4297 5.87109 9.84766C6.5625 9.07422 7.52734 8.64453 8.55859 8.64453C8.73828 8.64453 8.91797 8.65625 9.09766 8.68359V10.5781C8.92969 10.5234 8.75 10.4922 8.56641 10.4922C7.625 10.4922 6.85938 11.2617 6.875 12.2031C6.88281 12.8086 7.21484 13.3359 7.69922 13.625C7.92969 13.7617 8.19141 13.8477 8.47266 13.8633C8.69141 13.875 8.90234 13.8437 9.09766 13.7812C9.76953 13.5586 10.2578 12.9258 10.2578 12.1797L10.2617 9.39062V4.28906H12.125C12.125 4.47266 12.1445 4.65234 12.1797 4.82813C12.3203 5.53516 12.7187 6.14844 13.2734 6.56641C13.7578 6.92969 14.3594 7.14844 15.0117 7.14844H15.0156V7.65234Z" fill="#5B274A" fill-opacity="0.5"/>
</svg>
