<svg width="20" height="20" viewBox="0 0 20 20" fill="none" xmlns="http://www.w3.org/2000/svg">
<g clip-path="url(#clip0_456_254)">
<path d="M10.0902 9.09898L7.11723 4.86475H5.58569L9.27939 10.09L9.72984 10.7206L12.883 15.135H14.5046L10.6307 9.72961L10.0902 9.09898Z" fill="#5B274A" fill-opacity="0.5"/>
<path d="M10 0C4.5045 0 0 4.5045 0 10C0 15.4955 4.5045 20 10 20C15.4955 20 20 15.4955 20 10C20 4.5045 15.4955 0 10 0ZM12.4324 15.8559L9.18919 11.3514L5.22523 15.9459H4.14414L8.73874 10.7207L4.14414 4.14414H7.65766L10.7207 8.46847L14.5045 4.14414H15.4955L11.1712 9.0991L15.9459 15.8559H12.4324Z" fill="#5B274A" fill-opacity="0.5"/>
</g>
<defs>
<clipPath id="clip0_456_254">
<rect width="20" height="20" fill="white"/>
</clipPath>
</defs>
</svg>
