<svg width="20" height="20" viewBox="0 0 20 20" fill="none" xmlns="http://www.w3.org/2000/svg">
<g clip-path="url(#clip0_456_252)">
<path d="M11.6667 9.82292L9.32292 8.72917C9.11458 8.63542 8.94792 8.73958 8.94792 8.96875V11.0208C8.94792 11.25 9.11458 11.3542 9.32292 11.2604L11.6562 10.1667C11.8646 10.0729 11.8646 9.91667 11.6562 9.82292H11.6667ZM10 0C4.47917 0 0 4.47917 0 10C0 15.5208 4.47917 20 10 20C15.5208 20 20 15.5208 20 10C20 4.47917 15.5208 0 10 0ZM10 14.0625C4.88542 14.0625 4.79167 13.6042 4.79167 10C4.79167 6.39583 4.88542 5.9375 10 5.9375C15.1146 5.9375 15.2083 6.39583 15.2083 10C15.2083 13.6042 15.1146 14.0625 10 14.0625Z" fill="#5B274A" fill-opacity="0.5"/>
</g>
<defs>
<clipPath id="clip0_456_252">
<rect width="20" height="20" fill="white"/>
</clipPath>
</defs>
</svg>
